<svg version="1.1" baseProfile="full" width="1000" height="1000" xmlns="http://www.w3.org/2000/svg">
  <rect y="0%" x="0%" width="12.5%" height="12.5%" fill="#!01" />
  <rect y="0%" x="12.5%" width="12.5%" height="12.5%" fill="#!02" />
  <rect y="0%" x="25%" width="12.5%" height="12.5%" fill="#!03" />
  <rect y="0%" x="37.5%" width="12.5%" height="12.5%" fill="#!04" />
  <rect y="0%" x="50%" width="12.5%" height="12.5%" fill="#!05" />
  <rect y="0%" x="62.5%" width="12.5%" height="12.5%" fill="#!06" />
  <rect y="0%" x="75%" width="12.5%" height="12.5%" fill="#!07" />
  <rect y="0%" x="87.5%" width="12.5%" height="12.5%" fill="#!08" />
  <rect y="12.5%" x="0%" width="12.5%" height="12.5%" fill="#!09" />
  <rect y="12.5%" x="12.5%" width="12.5%" height="12.5%" fill="#!10" />
  <rect y="12.5%" x="25%" width="12.5%" height="12.5%" fill="#!11" />
  <rect y="12.5%" x="37.5%" width="12.5%" height="12.5%" fill="#!12" />
  <rect y="12.5%" x="50%" width="12.5%" height="12.5%" fill="#!13" />
  <rect y="12.5%" x="62.5%" width="12.5%" height="12.5%" fill="#!14" />
  <rect y="12.5%" x="75%" width="12.5%" height="12.5%" fill="#!15" />
  <rect y="12.5%" x="87.5%" width="12.5%" height="12.5%" fill="#!16" />
  <rect y="25%" x="0%" width="12.5%" height="12.5%" fill="#!17" />
  <rect y="25%" x="12.5%" width="12.5%" height="12.5%" fill="#!18" />
  <rect y="25%" x="25%" width="12.5%" height="12.5%" fill="#!19" />
  <rect y="25%" x="37.5%" width="12.5%" height="12.5%" fill="#!20" />
  <rect y="25%" x="50%" width="12.5%" height="12.5%" fill="#!21" />
  <rect y="25%" x="62.5%" width="12.5%" height="12.5%" fill="#!22" />
  <rect y="25%" x="75%" width="12.5%" height="12.5%" fill="#!23" />
  <rect y="25%" x="87.5%" width="12.5%" height="12.5%" fill="#!24" />
  <rect y="37.5%" x="0%" width="12.5%" height="12.5%" fill="#!25" />
  <rect y="37.5%" x="12.5%" width="12.5%" height="12.5%" fill="#!26" />
  <rect y="37.5%" x="25%" width="12.5%" height="12.5%" fill="#!27" />
  <rect y="37.5%" x="37.5%" width="12.5%" height="12.5%" fill="#!28" />
  <rect y="37.5%" x="50%" width="12.5%" height="12.5%" fill="#!29" />
  <rect y="37.5%" x="62.5%" width="12.5%" height="12.5%" fill="#!30" />
  <rect y="37.5%" x="75%" width="12.5%" height="12.5%" fill="#!31" />
  <rect y="37.5%" x="87.5%" width="12.5%" height="12.5%" fill="#!32" />
  <rect y="50%" x="0%" width="12.5%" height="12.5%" fill="#!33" />
  <rect y="50%" x="12.5%" width="12.5%" height="12.5%" fill="#!34" />
  <rect y="50%" x="25%" width="12.5%" height="12.5%" fill="#!35" />
  <rect y="50%" x="37.5%" width="12.5%" height="12.5%" fill="#!36" />
  <rect y="50%" x="50%" width="12.5%" height="12.5%" fill="#!37" />
  <rect y="50%" x="62.5%" width="12.5%" height="12.5%" fill="#!38" />
  <rect y="50%" x="75%" width="12.5%" height="12.5%" fill="#!39" />
  <rect y="50%" x="87.5%" width="12.5%" height="12.5%" fill="#!40" />
  <rect y="62.5%" x="0%" width="12.5%" height="12.5%" fill="#!41" />
  <rect y="62.5%" x="12.5%" width="12.5%" height="12.5%" fill="#!42" />
  <rect y="62.5%" x="25%" width="12.5%" height="12.5%" fill="#!43" />
  <rect y="62.5%" x="37.5%" width="12.5%" height="12.5%" fill="#!44" />
  <rect y="62.5%" x="50%" width="12.5%" height="12.5%" fill="#!45" />
  <rect y="62.5%" x="62.5%" width="12.5%" height="12.5%" fill="#!46" />
  <rect y="62.5%" x="75%" width="12.5%" height="12.5%" fill="#!47" />
  <rect y="62.5%" x="87.5%" width="12.5%" height="12.5%" fill="#!48" />
  <rect y="75%" x="0%" width="12.5%" height="12.5%" fill="#!49" />
  <rect y="75%" x="12.5%" width="12.5%" height="12.5%" fill="#!50" />
  <rect y="75%" x="25%" width="12.5%" height="12.5%" fill="#!51" />
  <rect y="75%" x="37.5%" width="12.5%" height="12.5%" fill="#!52" />
  <rect y="75%" x="50%" width="12.5%" height="12.5%" fill="#!53" />
  <rect y="75%" x="62.5%" width="12.5%" height="12.5%" fill="#!54" />
  <rect y="75%" x="75%" width="12.5%" height="12.5%" fill="#!55" />
  <rect y="75%" x="87.5%" width="12.5%" height="12.5%" fill="#!56" />
  <rect y="87.5%" x="0%" width="12.5%" height="12.5%" fill="#!57" />
  <rect y="87.5%" x="12.5%" width="12.5%" height="12.5%" fill="#!58" />
  <rect y="87.5%" x="25%" width="12.5%" height="12.5%" fill="#!59" />
  <rect y="87.5%" x="37.5%" width="12.5%" height="12.5%" fill="#!60" />
  <rect y="87.5%" x="50%" width="12.5%" height="12.5%" fill="#!61" />
  <rect y="87.5%" x="62.5%" width="12.5%" height="12.5%" fill="#!62" />
  <rect y="87.5%" x="75%" width="12.5%" height="12.5%" fill="#!63" />
  <rect y="87.5%" x="87.5%" width="12.5%" height="12.5%" fill="#!64" />
</svg>